<svg width="153" height="607" viewBox="0 0 153 607" fill="none" xmlns="http://www.w3.org/2000/svg">
<g clip-path="url(#clip0_2001_2)">
<rect width="153" height="607" fill="#FAF0D7"/>
<path opacity="0.5" d="M107.946 69.1407C107.511 68.9199 107.109 68.6498 106.731 68.351C106.361 68.041 106.032 67.6908 105.748 67.3061C105.174 66.5331 104.87 65.5921 104.673 64.6581C104.477 63.7215 104.346 62.7804 103.965 61.9484C103.589 61.1132 102.908 60.4457 102.094 59.931C102.551 60.122 102.971 60.3741 103.344 60.6804C103.711 60.9983 104.017 61.3742 104.251 61.7947C104.725 62.6418 104.871 63.6193 105.074 64.5354C105.261 65.4596 105.536 66.3464 106.021 67.1271C106.503 67.9085 107.187 68.5625 107.946 69.1407C107.946 69.1407 105.873 66.7068 106.744 63.3406C107.568 60.1547 104.579 58.9636 102.256 59.8642C102.166 59.619 102.102 59.3639 102.064 59.1021C102.92 58.5951 103.877 57.8852 104.898 56.8708L104.897 56.87C105.058 56.7145 105.126 56.5182 105.049 56.3754C104.947 56.1874 104.634 56.1652 104.35 56.325C104.294 56.3562 104.249 56.395 104.205 56.4337L104.201 56.431C104.19 56.4413 104.18 56.4498 104.169 56.4601L104.161 56.4678C102.729 57.8795 101.384 58.5922 100.315 58.9402C100.235 58.7676 100.149 58.5975 100.059 58.4301C97.4183 53.5691 91.1862 51.9298 86.139 54.767C81.0919 57.6043 79.1402 63.8442 81.7809 68.705C84.4212 73.5651 90.6536 75.2051 95.7008 72.3679C98.2317 70.9451 99.9836 68.6668 100.769 66.1361C102.956 68.6119 107.946 69.1407 107.946 69.1407ZM95.239 71.5178C90.7271 74.0542 85.119 72.5513 82.7374 68.1673C80.3559 63.7836 82.0889 58.1535 86.6008 55.6171C87.1793 55.2919 87.776 55.0342 88.3814 54.8395L88.2757 55.1239L88.7234 55.2153L88.8852 54.7813L88.7011 54.7431C92.5763 53.6447 96.7476 55.1229 98.8601 58.5499C98.5471 58.7019 98.255 58.8887 98.255 58.8887C98.255 58.8887 97.6694 57.2196 97.1802 57.4187C96.7006 57.6142 97.2476 59.2628 97.2476 59.2628C97.2476 59.2628 95.1905 59.535 95.1649 60.0359C95.1375 60.5627 97.293 60.4882 97.293 60.4882C97.293 60.4882 96.8044 62.5831 97.3722 62.628C97.902 62.6701 98.3665 60.7156 98.3665 60.7156C98.3665 60.7156 99.5724 61.3321 99.8169 61.0237C99.9671 60.835 99.6933 60.4855 99.4035 60.1984C99.4735 60.183 99.5553 60.1597 99.6312 60.1405C99.8476 60.7308 99.9983 61.3355 100.084 61.9456C99.9293 62.3156 99.8295 62.6988 99.7876 63.0834C99.7138 63.714 99.7893 64.3362 100.009 64.9042C99.5044 67.5806 97.8318 70.0602 95.239 71.5178ZM100.668 59.7945C100.968 59.6729 101.285 59.5324 101.628 59.3489C101.678 59.5538 101.752 59.7884 101.864 60.0399C101.526 60.2143 101.215 60.437 100.942 60.6991C100.865 60.3925 100.774 60.0906 100.668 59.7945Z" fill="#F29F05"/>
<path d="M92.7478 58.0583L92.5862 58.4927L93.0339 58.585L93.1953 58.1503L92.7478 58.0583ZM92.0975 56.4402L92.2594 56.0056L91.8114 55.9134L91.6504 56.348L92.0975 56.4402ZM90.9171 54.2664L90.7555 54.7008L91.2031 54.7928L91.3646 54.3584L90.9171 54.2664ZM92.0856 59.9108L91.9244 60.345L92.3718 60.4376L92.5331 60.0028L92.0856 59.9108ZM89.9074 59.655L89.7459 60.0894L90.1936 60.1817L90.355 59.747L89.9074 59.655ZM88.9389 57.8722L88.7773 58.3066L89.2249 58.3986L89.3864 57.9642L88.9389 57.8722ZM87.6639 55.9288L87.5019 56.3634L87.9498 56.4552L88.1114 56.0208L87.6639 55.9288ZM90.9114 57.9268L90.75 58.3615L91.1975 58.4535L91.3591 58.0191L90.9114 57.9268ZM89.9429 56.144L89.7813 56.5784L90.2288 56.6704L90.3908 56.2358L89.9429 56.144ZM94.9007 58.7731L95.0624 58.3382L94.6145 58.2464L94.453 58.6808L94.9007 58.7731ZM93.8326 56.8062L93.9943 56.3721L93.5466 56.2798L93.3853 56.7145L93.8326 56.8062ZM93.0942 54.716L93.2557 54.2816L92.808 54.1893L92.6466 54.624L93.0942 54.716ZM95.3829 56.8375L95.2213 57.2719L95.669 57.3642L95.8304 56.9295L95.3829 56.8375ZM96.1258 55.4433L95.9644 55.8781L96.4119 55.9701L96.5735 55.5357L96.1258 55.4433ZM94.6105 54.6839L94.4489 55.1183L94.8964 55.2103L95.058 54.7759L94.6105 54.6839ZM87.895 59.6224L87.7344 60.0567L88.1811 60.1491L88.3431 59.7145L87.895 59.6224ZM86.8725 57.7403L86.7117 58.1743L87.1585 58.2667L87.3204 57.8321L86.8725 57.7403Z" fill="#F29F05"/>
<path opacity="0.5" d="M157.516 127.433C157.058 128.324 156.495 129.145 155.872 129.919C155.226 130.677 154.494 131.353 153.69 131.935C152.073 133.115 150.101 133.744 148.143 134.157C146.179 134.567 144.204 134.846 142.462 135.632C140.713 136.407 139.319 137.804 138.248 139.468C138.644 138.535 139.168 137.675 139.807 136.913C140.47 136.161 141.256 135.533 142.136 135.051C143.909 134.075 145.96 133.766 147.881 133.342C149.819 132.95 151.677 132.379 153.311 131.381C154.946 130.39 156.311 128.987 157.516 127.433C157.516 127.433 152.43 131.688 145.353 129.952C138.656 128.31 136.189 134.415 138.106 139.14C137.592 139.325 137.057 139.458 136.508 139.539C135.434 137.801 133.933 135.858 131.792 133.789L131.79 133.791C131.462 133.464 131.049 133.327 130.75 133.487C130.356 133.697 130.313 134.335 130.652 134.913C130.718 135.025 130.8 135.117 130.882 135.207L130.876 135.215C130.898 135.236 130.916 135.258 130.938 135.279L130.954 135.295C133.934 138.199 135.445 140.931 136.188 143.106C135.826 143.272 135.47 143.448 135.12 143.634C124.945 149.072 121.573 161.793 127.587 172.048C133.6 182.302 146.722 186.207 156.897 180.768C167.07 175.331 170.443 162.609 164.429 152.355C161.414 147.213 156.611 143.668 151.29 142.097C156.462 137.61 157.516 127.433 157.516 127.433ZM162.65 153.306C168.026 162.472 164.934 173.92 155.757 178.825C146.581 183.73 134.742 180.263 129.366 171.096C128.677 169.921 128.129 168.708 127.713 167.476L128.312 167.688L128.499 166.775L127.586 166.45L127.508 166.826C125.158 158.94 128.214 150.421 135.385 146.076C135.707 146.712 136.103 147.305 136.103 147.305C136.103 147.305 132.605 148.518 133.029 149.513C133.445 150.488 136.9 149.354 136.9 149.354C136.9 149.354 137.494 153.544 138.546 153.59C139.652 153.64 139.472 149.247 139.472 149.247C139.472 149.247 143.875 150.219 143.963 149.061C144.046 147.981 139.937 147.057 139.937 147.057C139.937 147.057 141.218 144.592 140.568 144.097C140.17 143.793 139.439 144.355 138.839 144.949C138.806 144.807 138.756 144.64 138.715 144.486C139.952 144.038 141.22 143.724 142.5 143.542C143.278 143.853 144.084 144.052 144.892 144.133C146.217 144.276 147.522 144.115 148.712 143.661C154.336 144.658 159.561 148.038 162.65 153.306ZM137.977 142.376C137.719 141.766 137.42 141.123 137.031 140.424C137.461 140.32 137.952 140.166 138.479 139.936C138.849 140.623 139.32 141.255 139.873 141.808C139.23 141.968 138.598 142.158 137.977 142.376Z" fill="#F29F05"/>
<path d="M134.422 158.539L135.335 158.864L135.524 157.95L134.61 157.626L134.422 158.539ZM131.032 159.884L130.118 159.559L129.929 160.473L130.843 160.796L131.032 159.884ZM126.482 162.315L127.396 162.639L127.584 161.726L126.67 161.402L126.482 162.315ZM138.318 159.868L139.232 160.191L139.421 159.278L138.506 158.954L138.318 159.868ZM137.806 164.31L138.719 164.634L138.908 163.721L137.994 163.397L137.806 164.31ZM134.074 166.305L134.988 166.629L135.176 165.716L134.262 165.392L134.074 166.305ZM130.008 168.926L130.923 169.251L131.11 168.337L130.196 168.013L130.008 168.926ZM134.166 162.284L135.081 162.608L135.269 161.695L134.355 161.37L134.166 162.284ZM130.434 164.279L131.348 164.603L131.536 163.69L130.622 163.365L130.434 164.279ZM135.898 154.143L134.983 153.819L134.796 154.733L135.709 155.057L135.898 154.143ZM131.781 156.343L130.868 156.018L130.679 156.932L131.593 157.256L131.781 156.343ZM127.401 157.872L126.487 157.548L126.299 158.462L127.213 158.785L127.401 157.872ZM131.829 153.183L132.743 153.507L132.932 152.593L132.017 152.27L131.829 153.183ZM128.894 151.685L129.808 152.009L129.996 151.095L129.083 150.771L128.894 151.685ZM127.317 154.782L128.23 155.106L128.418 154.193L127.505 153.869L127.317 154.782ZM137.76 168.412L138.674 168.734L138.863 167.823L137.948 167.498L137.76 168.412ZM133.82 170.518L134.733 170.841L134.922 169.929L134.008 169.604L133.82 170.518Z" fill="#F29F05"/>
<path opacity="0.5" d="M40.8028 62.3346C40.5657 62.5988 40.296 62.8309 40.0079 63.0419C39.7124 63.2453 39.3923 63.4138 39.0529 63.5445C38.37 63.8102 37.6002 63.8592 36.8521 63.8358C36.1022 63.8108 35.3588 63.7407 34.6606 63.8623C33.9608 63.9793 33.3425 64.3376 32.821 64.8136C33.0385 64.5294 33.2973 64.2811 33.5903 64.0754C33.8914 63.8753 34.2275 63.7276 34.5868 63.6375C35.311 63.4539 36.0846 63.5204 36.8199 63.5368C37.5589 63.5657 38.2827 63.5271 38.9576 63.3246C39.6326 63.1244 40.241 62.7619 40.8028 62.3346C40.8028 62.3346 38.6118 63.3551 36.1606 62.1736C33.8407 61.0556 32.4628 62.924 32.7947 64.6901C32.5925 64.71 32.3866 64.7106 32.1796 64.692C31.9226 64.0118 31.5255 63.2261 30.9043 62.3438L30.9036 62.3443C30.8091 62.2058 30.6688 62.1248 30.5471 62.1541C30.3868 62.1927 30.3214 62.4058 30.4001 62.6304C30.4155 62.6742 30.4383 62.7123 30.4611 62.7497L30.4585 62.752C30.4647 62.761 30.4697 62.7696 30.476 62.7786L30.4806 62.7857C31.3433 64.0215 31.6825 65.0762 31.7843 65.8774C31.6392 65.9037 31.4953 65.9339 31.3527 65.9679C27.2093 66.9652 24.9846 71.0064 26.3825 74.9938C27.7805 78.9813 32.272 81.4054 36.4153 80.4078C40.558 79.4103 42.7833 75.369 41.3853 71.3815C40.6843 69.3821 39.2054 67.7761 37.3828 66.7973C39.6236 65.7048 40.8028 62.3346 40.8028 62.3346ZM40.6607 71.556C41.9104 75.1206 39.8873 78.7524 36.1503 79.6521C32.4137 80.5518 28.3569 78.3839 27.1071 74.8194C26.9469 74.3623 26.8413 73.9043 26.7855 73.451L26.9877 73.5731L27.1272 73.2782L26.8188 73.0916L26.761 73.2127C26.5174 70.3364 28.2991 67.6969 31.2591 66.8197C31.3274 67.0628 31.4257 67.2975 31.4257 67.2975C31.4257 67.2975 30.0526 67.4173 30.1298 67.7907C30.2057 68.1569 31.557 68.0604 31.557 68.0604C31.557 68.0604 31.4475 69.5339 31.8283 69.6375C32.2288 69.747 32.5054 68.2391 32.5054 68.2391C32.5054 68.2391 34.0392 68.9374 34.1616 68.5513C34.276 68.1911 32.8464 67.5336 32.8464 67.5336C32.8464 67.5336 33.5068 66.8029 33.3078 66.5804C33.1861 66.4439 32.8752 66.5738 32.6097 66.7256C32.6087 66.6744 32.6034 66.6137 32.6005 66.5577C33.0875 66.5089 33.5754 66.5081 34.0574 66.5534C34.3177 66.7241 34.5966 66.8591 34.8856 66.9541C35.3586 67.1135 35.8483 67.1679 36.3186 67.1132C38.2967 67.9221 39.9426 69.5076 40.6607 71.556ZM32.4953 65.779C32.4484 65.55 32.3894 65.3066 32.3017 65.0366C32.4669 65.0372 32.6585 65.0261 32.869 64.9918C32.9507 65.2561 33.0735 65.5104 33.2326 65.7447C32.9851 65.7453 32.7391 65.7567 32.4953 65.779Z" fill="#F29F05" fill-opacity="0.3"/>
<path d="M29.9347 70.9747L30.2433 71.1613L30.3836 70.8666L30.0746 70.6801L29.9347 70.9747ZM28.5908 71.1481L28.282 70.9613L28.1419 71.2562L28.4507 71.4425L28.5908 71.1481ZM26.738 71.5939L27.0467 71.7805L27.1867 71.4859L26.878 71.2993L26.738 71.5939ZM31.2553 71.7518L31.5639 71.9381L31.7043 71.6437L31.3953 71.4572L31.2553 71.7518ZM30.7214 73.2187L31.0301 73.4053L31.1703 73.1106L30.8614 72.9241L30.7214 73.2187ZM29.2017 73.5846L29.5104 73.7712L29.6504 73.4766L29.3417 73.29L29.2017 73.5846ZM27.5112 74.1355L27.82 74.3224L27.9599 74.0275L27.6512 73.8409L27.5112 74.1355ZM29.5492 72.2259L29.8582 72.4124L29.9982 72.1178L29.6895 71.9312L29.5492 72.2259ZM28.0296 72.5918L28.3382 72.7783L28.4782 72.4837L28.1694 72.2968L28.0296 72.5918ZM30.8173 69.6042L30.5082 69.4173L30.3683 69.7122L30.677 69.8988L30.8173 69.6042ZM29.1408 70.0075L28.8324 69.8208L28.6921 70.1155L29.0011 70.302L29.1408 70.0075ZM27.4206 70.1611L27.1119 69.9745L26.9717 70.2692L27.2807 70.4557L27.4206 70.1611ZM29.405 68.9376L29.7136 69.1242L29.8539 68.8295L29.5449 68.643L29.405 68.9376ZM28.449 68.1831L28.7579 68.3697L28.8979 68.075L28.5892 67.8885L28.449 68.1831ZM27.6308 69.1039L27.9395 69.2904L28.0795 68.9958L27.7708 68.8092L27.6308 69.1039ZM30.3847 74.6089L30.6934 74.7948L30.8336 74.5008L30.5248 74.3139L30.3847 74.6089ZM28.7804 74.9952L29.0889 75.1811L29.2291 74.8871L28.9203 74.7003L28.7804 74.9952Z" fill="#F29F05" fill-opacity="0.3"/>
<g opacity="0.7">
<path opacity="0.5" d="M73.3146 104.918C73.242 105.046 73.1531 105.164 73.0547 105.276C72.9526 105.385 72.8372 105.482 72.7104 105.566C72.4555 105.735 72.145 105.825 71.8367 105.884C71.5275 105.942 71.2168 105.981 70.9423 106.094C70.6667 106.205 70.4468 106.406 70.2774 106.645C70.3402 106.511 70.4231 106.387 70.524 106.278C70.6287 106.169 70.7526 106.079 70.8913 106.01C71.1707 105.87 71.4934 105.826 71.7958 105.766C72.1009 105.71 72.3936 105.629 72.6511 105.486C72.9088 105.343 73.1242 105.142 73.3146 104.918C73.3146 104.918 72.5124 105.529 71.4 105.276C70.3472 105.037 69.9561 105.916 70.2552 106.598C70.1744 106.624 70.0901 106.643 70.0037 106.655C69.8356 106.404 69.6004 106.123 69.2646 105.824L69.2644 105.824C69.2129 105.777 69.148 105.757 69.1009 105.78C69.0389 105.81 69.0318 105.902 69.0848 105.986C69.0951 106.002 69.108 106.015 69.1208 106.028L69.1199 106.029C69.1233 106.032 69.1261 106.035 69.1296 106.039L69.1321 106.041C69.5994 106.461 69.8358 106.855 69.9516 107.169C69.8946 107.193 69.8385 107.218 69.7833 107.245C68.1799 108.024 67.6432 109.857 68.5841 111.337C69.525 112.817 71.5873 113.385 73.1906 112.605C74.7937 111.826 75.3306 109.993 74.3897 108.513C73.9179 107.771 73.1642 107.258 72.3278 107.029C73.1438 106.385 73.3146 104.918 73.3146 104.918ZM74.1093 108.649C74.9505 109.973 74.4584 111.621 73.0123 112.325C71.5663 113.028 69.7056 112.524 68.8645 111.201C68.7567 111.031 68.6711 110.856 68.6063 110.678L68.7003 110.709L68.7302 110.577L68.5867 110.53L68.5743 110.584C68.2085 109.447 68.6936 108.22 69.8238 107.597C69.8742 107.688 69.9361 107.774 69.9361 107.774C69.9361 107.774 69.3853 107.947 69.4514 108.091C69.5164 108.232 70.0605 108.07 70.0605 108.07C70.0605 108.07 70.1519 108.674 70.3174 108.681C70.4914 108.688 70.4651 108.055 70.4651 108.055C70.4651 108.055 71.1574 108.197 71.1717 108.03C71.1853 107.874 70.5394 107.74 70.5394 107.74C70.5394 107.74 70.7421 107.385 70.6401 107.313C70.5776 107.269 70.4624 107.35 70.3678 107.435C70.3627 107.415 70.3549 107.391 70.3485 107.369C70.5433 107.305 70.7429 107.26 70.9443 107.234C71.0666 107.279 71.1933 107.308 71.3203 107.32C71.5287 107.341 71.7341 107.319 71.9215 107.254C72.8058 107.4 73.626 107.889 74.1093 108.649ZM70.2334 107.064C70.193 106.976 70.1464 106.883 70.0855 106.783C70.1532 106.768 70.2306 106.746 70.3136 106.713C70.3714 106.812 70.4452 106.903 70.532 106.983C70.4308 107.006 70.3312 107.033 70.2334 107.064Z" fill="#F29F05"/>
<path d="M69.666 109.393L69.8096 109.44L69.8398 109.308L69.6961 109.261L69.666 109.393ZM69.1321 109.585L68.9885 109.538L68.9584 109.67L69.102 109.716L69.1321 109.585ZM68.4151 109.934L68.5587 109.981L68.5887 109.849L68.4452 109.802L68.4151 109.934ZM70.2784 109.586L70.4219 109.633L70.4521 109.501L70.3084 109.454L70.2784 109.586ZM70.1955 110.226L70.3391 110.273L70.3693 110.141L70.2256 110.094L70.1955 110.226ZM69.6075 110.512L69.7511 110.559L69.7811 110.427L69.6375 110.38L69.6075 110.512ZM68.9666 110.888L69.1103 110.935L69.1402 110.804L68.9966 110.756L68.9666 110.888ZM69.624 109.932L69.7677 109.979L69.7977 109.848L69.6542 109.801L69.624 109.932ZM69.0359 110.218L69.1795 110.265L69.2096 110.134L69.0659 110.087L69.0359 110.218ZM69.9005 108.76L69.7567 108.712L69.7268 108.844L69.8703 108.891L69.9005 108.76ZM69.2517 109.075L69.1082 109.028L69.0781 109.159L69.2218 109.206L69.2517 109.075ZM68.5619 109.294L68.4184 109.247L68.3882 109.378L68.5319 109.425L68.5619 109.294ZM69.2609 108.62L69.4044 108.667L69.4346 108.535L69.2909 108.488L69.2609 108.62ZM68.7999 108.402L68.9435 108.449L68.9736 108.318L68.83 108.271L68.7999 108.402ZM68.5502 108.848L68.6938 108.895L68.7238 108.764L68.5802 108.717L68.5502 108.848ZM70.1863 110.817L70.3299 110.864L70.36 110.732L70.2164 110.685L70.1863 110.817ZM69.5655 111.119L69.7089 111.166L69.7391 111.034L69.5955 110.987L69.5655 111.119Z" fill="#F29F05"/>
</g>
<path opacity="0.5" d="M83.8802 136.786C83.9664 137.186 84.0002 137.596 84.0015 138.009C83.9908 138.425 83.9303 138.841 83.8212 139.251C83.6042 140.077 83.1242 140.843 82.5909 141.541C82.0551 142.239 81.4812 142.902 81.1183 143.648C80.75 144.392 80.6642 145.217 80.755 146.028C80.6366 145.634 80.5802 145.223 80.5871 144.808C80.6049 144.39 80.6958 143.972 80.8567 143.57C81.1791 142.758 81.7702 142.065 82.288 141.375C82.8201 140.689 83.2785 139.974 83.5494 139.197C83.8226 138.422 83.8977 137.603 83.8802 136.786C83.8802 136.786 83.3418 139.547 80.5568 141.105C77.9211 142.58 78.7349 145.125 80.621 145.972C80.5015 146.178 80.3614 146.374 80.2025 146.56C79.3878 146.356 78.3782 146.217 77.1248 146.228L77.1248 146.229C76.9301 146.228 76.7582 146.308 76.7025 146.443C76.6293 146.622 76.7847 146.825 77.0495 146.897C77.1012 146.912 77.1526 146.915 77.2034 146.918L77.2037 146.922C77.2164 146.922 77.2279 146.923 77.2406 146.923L77.2505 146.923C79.001 146.915 80.2238 147.287 81.046 147.718C80.9716 147.873 80.9016 148.03 80.8361 148.189C78.9417 152.796 81.2183 157.58 85.9199 158.874C90.6214 160.169 95.9682 157.485 97.8622 152.878C99.7559 148.271 97.4796 143.487 92.7781 142.192C90.4205 141.542 87.901 141.894 85.736 142.987C86.2408 140.131 83.8802 136.786 83.8802 136.786ZM92.4468 142.997C96.6498 144.155 98.6794 148.477 96.9712 152.632C95.2631 156.787 90.4541 159.226 86.2511 158.069C85.7122 157.92 85.2097 157.719 84.7457 157.474L84.9986 157.361L84.8169 157.034L84.4308 157.205L84.5051 157.34C81.6363 155.677 80.3739 152.239 81.5724 148.839C81.8476 148.934 82.1352 148.995 82.1352 148.995C82.1352 148.995 81.3095 150.383 81.7131 150.556C82.109 150.724 82.9417 149.373 82.9417 149.373C82.9417 149.373 84.2512 150.448 84.6089 150.153C84.9853 149.844 83.7577 148.586 83.7577 148.586C83.7577 148.586 85.4618 147.584 85.1827 147.213C84.9225 146.867 83.3279 147.796 83.3279 147.796C83.3279 147.796 83.0927 146.685 82.7476 146.728C82.5362 146.754 82.4458 147.136 82.4069 147.49C82.3581 147.457 82.2975 147.422 82.2429 147.388C82.5299 146.891 82.8626 146.426 83.2344 145.996C83.5727 145.86 83.8901 145.683 84.1769 145.471C84.6499 145.125 85.0356 144.694 85.3056 144.209C87.4173 142.857 90.0315 142.332 92.4468 142.997ZM81.4394 146.975C81.1922 146.869 80.9232 146.765 80.6097 146.67C80.7231 146.513 80.8436 146.323 80.9552 146.1C81.2593 146.196 81.5822 146.247 81.911 146.249C81.7425 146.486 81.5852 146.728 81.4394 146.975Z" fill="#F29F05"/>
<path d="M84.5711 152.84L84.9574 152.668L84.7764 152.34L84.39 152.512L84.5711 152.84ZM83.8158 154.235L83.4292 154.406L83.6106 154.734L83.9966 154.563L83.8158 154.235ZM82.9685 156.295L83.3548 156.124L83.1736 155.796L82.7874 155.967L82.9685 156.295ZM86.2037 152.093L86.5896 151.921L86.409 151.593L86.0226 151.765L86.2037 152.093ZM87.217 153.568L87.6033 153.397L87.4223 153.069L87.0359 153.241L87.217 153.568ZM86.5223 155.258L86.9086 155.087L86.7275 154.759L86.3412 154.931L86.5223 155.258ZM85.8848 157.233L86.2714 157.061L86.0899 156.734L85.7036 156.905L85.8848 157.233ZM85.4832 154.032L85.8696 153.86L85.6885 153.532L85.3022 153.704L85.4832 154.032ZM84.7886 155.721L85.1748 155.55L84.9937 155.222L84.6071 155.394L84.7886 155.721ZM83.8866 151.095L83.4999 151.267L83.6814 151.594L84.0676 151.423L83.8866 151.095ZM83.1199 152.959L82.7338 153.13L82.9148 153.458L83.3012 153.286L83.1199 152.959ZM82.0888 154.7L81.7025 154.871L81.8836 155.199L82.2699 155.028L82.0888 154.7ZM82.2953 152.002L82.6815 151.831L82.5005 151.503L82.1141 151.675L82.2953 152.002ZM80.9332 152.416L81.3196 152.245L81.1384 151.917L80.7522 152.089L80.9332 152.416ZM81.2391 153.803L81.6254 153.632L81.4443 153.304L81.058 153.476L81.2391 153.803ZM88.2931 154.805L88.6787 154.634L88.4983 154.306L88.1117 154.477L88.2931 154.805ZM87.5597 156.589L87.9452 156.418L87.7648 156.09L87.3782 156.262L87.5597 156.589Z" fill="black" fill-opacity="0.5"/>
<path opacity="0.5" d="M91.0934 226.902C90.4024 226.564 89.7656 226.151 89.1658 225.693C88.5788 225.219 88.056 224.682 87.6061 224.093C86.695 222.91 86.2137 221.469 85.9008 220.039C85.5903 218.604 85.3814 217.163 84.7769 215.889C84.1814 214.61 83.0999 213.588 81.8093 212.8C82.5344 213.093 83.2013 213.479 83.7918 213.948C84.3742 214.435 84.8596 215.01 85.2307 215.654C85.983 216.951 86.2145 218.448 86.5366 219.851C86.8332 221.266 87.2694 222.624 88.0388 223.819C88.8035 225.016 89.8892 226.017 91.0934 226.902C91.0934 226.902 87.8042 223.176 89.1855 218.021C90.4925 213.143 85.7517 211.319 82.0655 212.698C81.9239 212.323 81.8223 211.932 81.7621 211.531C83.119 210.755 84.6376 209.668 86.2576 208.114L86.2561 208.113C86.512 207.875 86.6201 207.575 86.497 207.356C86.3349 207.068 85.8389 207.034 85.3879 207.279C85.2999 207.326 85.228 207.386 85.1575 207.445L85.1513 207.441C85.1348 207.457 85.1183 207.47 85.1018 207.486L85.0887 207.497C82.816 209.659 80.6833 210.75 78.9873 211.283C78.8594 211.019 78.7237 210.758 78.5803 210.502C74.3917 203.059 64.5051 200.549 56.4982 204.893C48.4914 209.238 45.3953 218.792 49.5844 226.235C53.773 233.677 63.6602 236.189 71.6671 231.844C75.6821 229.665 78.4613 226.177 79.707 222.302C83.1773 226.093 91.0934 226.902 91.0934 226.902ZM70.9345 230.542C63.7767 234.426 54.8801 232.125 51.1018 225.412C47.3238 218.699 50.0731 210.079 57.2309 206.195C58.1486 205.697 59.0951 205.302 60.0555 205.004L59.8879 205.44L60.5981 205.58L60.8547 204.915L60.5628 204.857C66.7104 203.175 73.3277 205.438 76.679 210.686C76.1824 210.918 75.7191 211.204 75.7191 211.204C75.7191 211.204 74.7901 208.649 74.014 208.953C73.2531 209.253 74.121 211.777 74.121 211.777C74.121 211.777 70.8575 212.194 70.817 212.961C70.7734 213.768 74.1929 213.653 74.1929 213.653C74.1929 213.653 73.4179 216.861 74.3186 216.93C75.1591 216.995 75.896 214.002 75.896 214.002C75.896 214.002 77.809 214.946 78.1969 214.474C78.4352 214.185 78.0009 213.649 77.5411 213.21C77.6522 213.186 77.7818 213.15 77.9024 213.121C78.2456 214.025 78.4846 214.951 78.6206 215.885C78.3753 216.452 78.2169 217.038 78.1505 217.627C78.0333 218.593 78.1532 219.546 78.5011 220.415C77.7011 224.514 75.0478 228.31 70.9345 230.542ZM79.5477 212.591C80.0237 212.405 80.5253 212.19 81.0708 211.909C81.15 212.223 81.2673 212.582 81.4444 212.967C80.9084 213.234 80.4141 213.575 79.9811 213.976C79.8594 213.507 79.7148 213.045 79.5477 212.591Z" fill="#F29F05"/>
<path d="M66.9824 209.933L66.7261 210.598L67.4364 210.739L67.6924 210.074L66.9824 209.933ZM65.9508 207.455L66.2077 206.79L65.4969 206.649L65.2414 207.314L65.9508 207.455ZM64.0782 204.127L63.8219 204.792L64.5319 204.933L64.7882 204.267L64.0782 204.127ZM65.9319 212.769L65.6762 213.434L66.3859 213.576L66.6419 212.91L65.9319 212.769ZM62.4764 212.378L62.2201 213.043L62.9304 213.184L63.1864 212.519L62.4764 212.378ZM60.94 209.648L60.6837 210.313L61.3936 210.454L61.6499 209.789L60.94 209.648ZM58.9173 206.672L58.6604 207.337L59.3709 207.478L59.6272 206.813L58.9173 206.672ZM64.0691 209.731L63.8131 210.397L64.523 210.538L64.7793 209.873L64.0691 209.731ZM62.5326 207.002L62.2763 207.667L62.9863 207.808L63.2432 207.142L62.5326 207.002ZM70.3978 211.027L70.6544 210.361L69.9438 210.221L69.6875 210.886L70.3978 211.027ZM68.7034 208.015L68.96 207.351L68.2497 207.209L67.9937 207.875L68.7034 208.015ZM67.5319 204.815L67.7882 204.15L67.078 204.008L66.822 204.674L67.5319 204.815ZM71.1628 208.063L70.9064 208.729L71.6167 208.87L71.8727 208.204L71.1628 208.063ZM72.3413 205.929L72.0853 206.594L72.7953 206.735L73.0516 206.07L72.3413 205.929ZM69.9374 204.766L69.6811 205.431L70.3911 205.572L70.6474 204.907L69.9374 204.766ZM59.2839 212.328L59.0291 212.993L59.7378 213.134L59.9948 212.469L59.2839 212.328ZM57.6619 209.446L57.4068 210.11L58.1155 210.252L58.3724 209.586L57.6619 209.446Z" fill="black" fill-opacity="0.5"/>
<path opacity="0.5" d="M22.4788 183.576C22.2767 183.932 22.0288 184.261 21.7544 184.57C21.4695 184.873 21.1473 185.144 20.793 185.377C20.081 185.848 19.2127 186.1 18.3503 186.266C17.4854 186.43 16.6161 186.542 15.8488 186.857C15.0785 187.167 14.4647 187.725 13.9925 188.391C14.1671 188.017 14.3982 187.674 14.6796 187.369C14.9718 187.068 15.3178 186.817 15.7054 186.624C16.4863 186.234 17.3892 186.11 18.235 185.94C19.0885 185.783 19.9069 185.554 20.6263 185.155C21.3464 184.759 21.9478 184.198 22.4788 183.576C22.4788 183.576 20.2385 185.278 17.1231 184.586C14.1747 183.931 13.0872 186.371 13.93 188.259C13.7039 188.333 13.4683 188.387 13.2265 188.419C12.7541 187.725 12.0936 186.949 11.1514 186.122L11.1506 186.123C11.0062 185.992 10.8244 185.938 10.6928 186.002C10.5194 186.086 10.5003 186.341 10.6493 186.572C10.6784 186.617 10.7145 186.653 10.7504 186.689L10.748 186.693C10.7576 186.701 10.7655 186.709 10.775 186.718L10.7822 186.725C12.0935 187.884 12.7583 188.976 13.0847 189.845C12.9256 189.911 12.7688 189.982 12.6145 190.056C8.13328 192.232 6.64604 197.317 9.2913 201.414C11.9366 205.51 17.7129 207.068 22.1939 204.892C26.6743 202.717 28.1621 197.632 25.5169 193.535C24.1904 191.481 22.0767 190.065 19.734 189.438C22.0125 187.644 22.4788 183.576 22.4788 183.576ZM24.7332 193.915C27.098 197.578 25.7341 202.154 21.6926 204.116C17.6514 206.078 12.4397 204.695 10.075 201.033C9.77178 200.564 9.53087 200.079 9.34814 199.587L9.61154 199.671L9.69403 199.306L9.29211 199.177L9.25769 199.327C8.22489 196.176 9.57245 192.77 12.7306 191.032C12.8725 191.286 13.0465 191.523 13.0465 191.523C13.0465 191.523 11.5063 192.009 11.6925 192.406C11.8754 192.796 13.3968 192.342 13.3968 192.342C13.3968 192.342 13.6577 194.016 14.1207 194.034C14.6078 194.054 14.5292 192.299 14.5292 192.299C14.5292 192.299 16.4678 192.686 16.5067 192.223C16.5433 191.791 14.7346 191.423 14.7346 191.423C14.7346 191.423 15.2989 190.438 15.0128 190.24C14.8377 190.119 14.5159 190.343 14.2518 190.581C14.2373 190.524 14.2153 190.458 14.1973 190.396C14.742 190.216 15.3002 190.091 15.8637 190.018C16.2064 190.142 16.561 190.221 16.9167 190.253C17.5 190.31 18.0747 190.245 18.5987 190.064C21.0748 190.461 23.3743 191.811 24.7332 193.915ZM13.8728 189.553C13.759 189.309 13.6278 189.052 13.4566 188.773C13.6458 188.731 13.8622 188.67 14.0942 188.577C14.2569 188.852 14.4642 189.105 14.7077 189.325C14.4246 189.39 14.1461 189.465 13.8728 189.553Z" fill="#F29F05"/>
<path d="M12.3037 196.013L12.7059 196.143L12.7892 195.778L12.3867 195.648L12.3037 196.013ZM10.811 196.551L10.4085 196.422L10.3254 196.787L10.7278 196.916L10.811 196.551ZM8.8071 197.524L9.20933 197.653L9.29234 197.288L8.89011 197.159L8.8071 197.524ZM14.019 196.543L14.4211 196.672L14.5046 196.308L14.102 196.178L14.019 196.543ZM13.7923 198.319L14.1946 198.448L14.2779 198.083L13.8753 197.954L13.7923 198.319ZM12.1488 199.117L12.5511 199.246L12.6341 198.881L12.2319 198.752L12.1488 199.117ZM10.3583 200.166L10.7607 200.295L10.8435 199.93L10.4413 199.801L10.3583 200.166ZM12.1904 197.51L12.593 197.639L12.676 197.274L12.2737 197.145L12.1904 197.51ZM10.5469 198.308L10.9492 198.437L11.0322 198.072L10.6297 197.943L10.5469 198.308ZM12.9547 194.256L12.552 194.127L12.4692 194.492L12.8714 194.621L12.9547 194.256ZM11.1415 195.136L10.7395 195.007L10.6562 195.372L11.0588 195.501L11.1415 195.136ZM9.21285 195.748L8.81061 195.619L8.72729 195.984L9.12984 196.113L9.21285 195.748ZM11.1634 193.873L11.5657 194.003L11.649 193.637L11.2465 193.508L11.1634 193.873ZM9.87146 193.275L10.274 193.404L10.357 193.039L9.95478 192.91L9.87146 193.275ZM9.17633 194.513L9.57857 194.643L9.66158 194.278L9.25934 194.148L9.17633 194.513ZM13.7713 199.958L14.1735 200.087L14.2569 199.723L13.8544 199.593L13.7713 199.958ZM12.0363 200.801L12.4381 200.93L12.5215 200.565L12.1191 200.436L12.0363 200.801Z" fill="black" fill-opacity="0.5"/>
<path opacity="0.5" d="M96.635 272.343C96.6665 272.83 96.6382 273.313 96.5733 273.791C96.4946 274.267 96.3608 274.729 96.1739 275.169C95.8005 276.057 95.1448 276.797 94.441 277.442C93.7342 278.086 92.9909 278.679 92.4685 279.43C91.9404 280.178 91.7126 281.104 91.6833 282.067C91.6153 281.576 91.6184 281.086 91.6927 280.61C91.7796 280.132 91.9476 279.677 92.1906 279.262C92.6787 278.423 93.446 277.8 94.1314 277.159C94.832 276.528 95.4556 275.84 95.8809 275.025C96.3085 274.213 96.5234 273.291 96.635 272.343C96.635 272.343 95.5944 275.366 92.2533 276.329C89.0914 277.241 89.5863 280.419 91.5436 281.962C91.378 282.163 91.1909 282.348 90.9848 282.514C90.1132 282.036 89.015 281.573 87.6222 281.209L87.622 281.211C87.4061 281.151 87.2025 281.192 87.119 281.332C87.009 281.515 87.149 281.796 87.4312 281.959C87.4863 281.991 87.5428 282.01 87.5987 282.029L87.5984 282.034C87.6125 282.037 87.6251 282.042 87.6393 282.046L87.6502 282.049C89.5943 282.564 90.8918 283.359 91.7352 284.102C91.6277 284.259 91.5248 284.42 91.4267 284.583C88.5849 289.329 90.3439 295.528 95.3542 298.43C100.365 301.332 106.729 299.838 109.571 295.091C112.412 290.346 110.653 284.146 105.643 281.244C103.131 279.789 100.278 279.44 97.6996 280.051C98.7182 276.908 96.635 272.343 96.635 272.343ZM105.146 282.074C109.625 284.668 111.184 290.261 108.621 294.541C106.059 298.822 100.33 300.194 95.8511 297.6C95.2769 297.267 94.7514 296.885 94.2758 296.463L94.5745 296.409L94.4254 295.977L93.9694 296.058L94.0302 296.236C91.1131 293.459 90.2637 289.116 92.1395 285.554C92.4296 285.746 92.739 285.902 92.739 285.902C92.739 285.902 91.5999 287.255 92.0202 287.575C92.4325 287.889 93.5736 286.579 93.5736 286.579C93.5736 286.579 94.8544 288.212 95.2986 287.979C95.7661 287.734 94.6054 285.917 94.6054 285.917C94.6054 285.917 96.6576 285.271 96.4073 284.76C96.1741 284.282 94.2551 284.877 94.2551 284.877C94.2551 284.877 94.1724 283.525 93.7825 283.471C93.5436 283.438 93.382 283.851 93.2822 284.247C93.2333 284.195 93.1717 284.136 93.1165 284.08C93.5147 283.594 93.9586 283.157 94.4403 282.772C94.8375 282.717 95.2182 282.608 95.5706 282.449C96.1511 282.191 96.6484 281.81 97.0257 281.332C99.5865 280.405 102.572 280.583 105.146 282.074ZM92.291 283.364C92.0337 283.167 91.7519 282.966 91.419 282.764C91.5701 282.616 91.7343 282.433 91.894 282.209C92.2161 282.412 92.5663 282.567 92.9309 282.668C92.7059 282.89 92.4924 283.122 92.291 283.364Z" fill="#F29F05" fill-opacity="0.3"/>
<path d="M94.8257 291.066L95.2818 290.984L95.1336 290.552L94.6772 290.634L94.8257 291.066ZM93.7634 292.449L93.3069 292.531L93.4555 292.963L93.9115 292.881L93.7634 292.449ZM92.4925 294.571L92.9487 294.489L92.8002 294.057L92.344 294.139L92.4925 294.571ZM96.7575 290.693L97.2133 290.611L97.0654 290.179L96.609 290.261L96.7575 290.693ZM97.6453 292.699L98.1015 292.617L97.9532 292.185L97.4968 292.267L97.6453 292.699ZM96.6031 294.44L97.0593 294.358L96.9108 293.926L96.4547 294.008L96.6031 294.44ZM95.5787 296.526L96.0352 296.444L95.8863 296.012L95.4302 296.094L95.5787 296.526ZM95.6467 292.714L96.1031 292.632L95.9546 292.199L95.4984 292.281L95.6467 292.714ZM94.6045 294.455L95.0607 294.373L94.9122 293.941L94.4557 294.022L94.6045 294.455ZM94.3459 288.849L93.8891 288.931L94.038 289.363L94.4942 289.281L94.3459 288.849ZM93.1958 290.769L92.7399 290.85L92.8881 291.283L93.3445 291.201L93.1958 290.769ZM91.772 292.468L91.3159 292.55L91.4641 292.982L91.9205 292.9L91.772 292.468ZM92.4341 289.418L92.8903 289.336L92.742 288.904L92.2857 288.986L92.4341 289.418ZM90.8559 289.488L91.3123 289.406L91.1638 288.974L90.7077 289.055L90.8559 289.488ZM90.973 291.179L91.4292 291.097L91.2807 290.665L90.8245 290.747L90.973 291.179ZM98.641 294.448L99.0967 294.365L98.9489 293.934L98.4924 294.015L98.641 294.448ZM97.5409 296.286L97.9963 296.203L97.8486 295.772L97.392 295.853L97.5409 296.286Z" fill="#F29F05" fill-opacity="0.3"/>
<g opacity="0.5">
<path opacity="0.5" d="M115.06 377.944C114.663 378.793 114.166 379.582 113.61 380.329C113.031 381.062 112.368 381.722 111.634 382.298C110.158 383.464 108.325 384.13 106.496 384.594C104.662 385.056 102.814 385.396 101.203 386.199C99.5864 386.993 98.3291 388.352 97.3857 389.948C97.7217 389.061 98.1817 388.238 98.7532 387.501C99.3481 386.772 100.063 386.155 100.873 385.67C102.505 384.688 104.424 384.317 106.217 383.844C108.027 383.4 109.756 382.793 111.255 381.797C112.756 380.806 113.986 379.442 115.06 377.944C115.06 377.944 110.437 382.118 103.702 380.782C97.3274 379.519 95.2458 385.315 97.2389 389.648C96.7623 389.841 96.2638 389.987 95.7496 390.084C94.6689 388.506 93.1777 386.753 91.0786 384.907L91.0771 384.909C90.755 384.617 90.3605 384.506 90.0853 384.668C89.7228 384.88 89.7076 385.476 90.0495 386.002C90.1163 386.104 90.1972 386.187 90.2778 386.268L90.2729 386.275C90.2941 386.294 90.3119 386.313 90.3332 386.332L90.3493 386.347C93.2715 388.937 94.8036 391.426 95.5894 393.425C95.2556 393.595 94.9272 393.774 94.6045 393.962C85.2347 399.445 82.5634 411.452 88.6351 420.78C94.7067 430.108 107.223 433.225 116.592 427.741C125.96 422.258 128.633 410.251 122.561 400.923C119.517 396.245 114.852 393.131 109.776 391.878C114.471 387.483 115.06 377.944 115.06 377.944ZM120.923 401.882C126.35 410.221 123.892 421.028 115.442 425.974C106.992 430.919 95.7014 428.159 90.2736 419.821C89.5777 418.752 89.0136 417.642 88.5731 416.509L89.1452 416.683L89.285 415.823L88.412 415.556L88.3535 415.91C85.827 408.645 88.3682 400.573 94.9509 396.229C95.2801 396.81 95.6762 397.348 95.6762 397.348C95.6762 397.348 92.4295 398.62 92.8679 399.532C93.2983 400.425 96.508 399.228 96.508 399.228C96.508 399.228 97.2344 403.114 98.2271 403.115C99.2712 403.117 98.9266 399.025 98.9266 399.025C98.9266 399.025 103.114 399.755 103.15 398.671C103.185 397.659 99.2782 396.962 99.2782 396.962C99.2782 396.962 100.387 394.61 99.7547 394.175C99.3678 393.907 98.7018 394.461 98.1606 395.039C98.1237 394.908 98.0702 394.754 98.0253 394.612C99.1728 394.144 100.354 393.8 101.553 393.579C102.299 393.838 103.065 393.991 103.83 394.034C105.083 394.115 106.307 393.912 107.41 393.441C112.748 394.145 117.803 397.09 120.923 401.882ZM97.2463 392.672C96.9784 392.113 96.6717 391.525 96.2774 390.889C96.6781 390.775 97.135 390.612 97.6221 390.375C97.9978 391.001 98.4666 391.573 99.0099 392.067C98.4106 392.242 97.8222 392.444 97.2463 392.672Z" fill="#F29F05"/>
<path d="M94.538 407.899L95.4117 408.165L95.5533 407.305L94.679 407.04L94.538 407.899ZM91.3982 409.29L90.524 409.023L90.3829 409.884L91.2568 410.149L91.3982 409.29ZM87.2082 411.741L88.0819 412.007L88.2228 411.147L87.3492 410.882L87.2082 411.741ZM98.2616 408.982L99.1348 409.248L99.2768 408.388L98.4025 408.123L98.2616 408.982ZM97.955 413.149L98.8286 413.415L98.9702 412.555L98.0959 412.289L97.955 413.149ZM94.5186 415.16L95.3922 415.426L95.5332 414.566L94.6595 414.3L94.5186 415.16ZM90.7927 417.77L91.6668 418.036L91.8073 417.176L90.9336 416.91L90.7927 417.77ZM94.4461 411.404L95.3204 411.67L95.4613 410.81L94.5877 410.544L94.4461 411.404ZM91.0097 413.415L91.8833 413.681L92.0243 412.822L91.1502 412.555L91.0097 413.415ZM95.7545 403.737L94.8798 403.471L94.7393 404.332L95.613 404.598L95.7545 403.737ZM91.9631 405.956L91.0901 405.689L90.9485 406.549L91.8228 406.815L91.9631 405.956ZM87.898 407.559L87.0243 407.293L86.8828 408.153L87.7571 408.418L87.898 407.559ZM91.8833 403.005L92.7569 403.27L92.8985 402.41L92.0242 402.145L91.8833 403.005ZM89.0587 401.724L89.933 401.99L90.074 401.13L89.2003 400.864L89.0587 401.724ZM87.6958 404.678L88.5694 404.944L88.7104 404.084L87.8367 403.818L87.6958 404.678ZM98.0747 416.979L98.9481 417.243L99.09 416.384L98.2158 416.118L98.0747 416.979ZM94.4469 419.102L95.3197 419.367L95.4615 418.508L94.5874 418.242L94.4469 419.102Z" fill="#F29F05"/>
</g>
<g opacity="0.15">
<path opacity="0.5" d="M122.927 353.283C122.829 353.46 122.709 353.624 122.576 353.778C122.438 353.929 122.282 354.064 122.11 354.18C121.765 354.415 121.344 354.54 120.926 354.623C120.507 354.704 120.085 354.76 119.714 354.917C119.34 355.071 119.043 355.35 118.814 355.681C118.898 355.495 119.01 355.324 119.147 355.172C119.288 355.022 119.456 354.897 119.644 354.801C120.023 354.607 120.46 354.545 120.87 354.46C121.284 354.382 121.681 354.268 122.029 354.069C122.378 353.872 122.67 353.592 122.927 353.283C122.927 353.283 121.841 354.13 120.331 353.785C118.902 353.459 118.375 354.675 118.784 355.616C118.674 355.652 118.56 355.679 118.443 355.695C118.213 355.349 117.893 354.962 117.436 354.551L117.436 354.551C117.366 354.486 117.278 354.459 117.214 354.491C117.13 354.532 117.121 354.659 117.193 354.774C117.207 354.797 117.225 354.815 117.242 354.833L117.241 354.835C117.246 354.839 117.249 354.843 117.254 354.847L117.258 354.851C117.893 355.429 118.216 355.972 118.374 356.405C118.297 356.439 118.221 356.474 118.146 356.511C115.974 357.594 115.253 360.128 116.536 362.169C117.818 364.211 120.619 364.987 122.791 363.904C124.962 362.82 125.683 360.286 124.401 358.245C123.757 357.221 122.733 356.516 121.597 356.203C122.701 355.31 122.927 353.283 122.927 353.283ZM124.021 358.434C125.167 360.259 124.506 362.539 122.548 363.517C120.589 364.494 118.062 363.805 116.916 361.98C116.769 361.746 116.652 361.504 116.563 361.259L116.691 361.301L116.731 361.119L116.536 361.055L116.519 361.129C116.019 359.559 116.672 357.863 118.202 356.997C118.271 357.124 118.355 357.242 118.355 357.242C118.355 357.242 117.609 357.483 117.699 357.682C117.788 357.876 118.525 357.65 118.525 357.65C118.525 357.65 118.652 358.484 118.876 358.493C119.112 358.503 119.074 357.628 119.074 357.628C119.074 357.628 120.014 357.821 120.033 357.591C120.051 357.376 119.174 357.192 119.174 357.192C119.174 357.192 119.447 356.701 119.309 356.602C119.224 356.542 119.068 356.654 118.94 356.772C118.933 356.744 118.922 356.711 118.913 356.68C119.177 356.591 119.448 356.528 119.721 356.492C119.887 356.554 120.059 356.593 120.231 356.609C120.514 356.638 120.793 356.605 121.047 356.515C122.247 356.713 123.362 357.386 124.021 358.434ZM118.756 356.26C118.701 356.138 118.637 356.01 118.554 355.871C118.646 355.851 118.751 355.82 118.863 355.774C118.942 355.911 119.043 356.037 119.161 356.147C119.023 356.179 118.888 356.216 118.756 356.26Z" fill="#F29F05" fill-opacity="0.5"/>
<path d="M117.996 359.479L118.191 359.543L118.231 359.361L118.036 359.297L117.996 359.479ZM117.272 359.747L117.077 359.682L117.037 359.864L117.232 359.929L117.272 359.747ZM116.301 360.231L116.496 360.296L116.536 360.114L116.341 360.049L116.301 360.231ZM118.827 359.743L119.022 359.807L119.063 359.626L118.867 359.561L118.827 359.743ZM118.718 360.628L118.913 360.692L118.953 360.51L118.758 360.446L118.718 360.628ZM117.921 361.025L118.116 361.09L118.156 360.908L117.961 360.843L117.921 361.025ZM117.053 361.548L117.248 361.612L117.288 361.43L117.093 361.366L117.053 361.548ZM117.941 360.225L118.136 360.289L118.176 360.107L117.981 360.043L117.941 360.225ZM117.144 360.622L117.339 360.687L117.38 360.505L117.184 360.44L117.144 360.622ZM118.311 358.603L118.116 358.539L118.076 358.721L118.271 358.785L118.311 358.603ZM117.432 359.042L117.237 358.977L117.197 359.159L117.392 359.223L117.432 359.042ZM116.497 359.347L116.302 359.282L116.262 359.464L116.457 359.528L116.497 359.347ZM117.443 358.412L117.638 358.477L117.678 358.295L117.483 358.231L117.443 358.412ZM116.817 358.114L117.012 358.179L117.052 357.997L116.857 357.932L116.817 358.114ZM116.48 358.731L116.675 358.796L116.715 358.614L116.52 358.549L116.48 358.731ZM118.707 361.445L118.902 361.509L118.943 361.327L118.748 361.262L118.707 361.445ZM117.866 361.864L118.061 361.928L118.102 361.747L117.907 361.682L117.866 361.864Z" fill="#F29F05" fill-opacity="0.5"/>
</g>
<path opacity="0.5" d="M38.8493 354.562C38.5174 354.65 38.1784 354.696 37.8372 354.715C37.4946 354.725 37.1527 354.694 36.8173 354.623C36.1409 354.481 35.5198 354.122 34.9564 353.716C34.3925 353.309 33.8591 352.868 33.2523 352.604C32.6468 352.335 31.9679 352.301 31.2972 352.411C31.6254 352.297 31.9651 352.233 32.307 352.22C32.6521 352.216 32.9946 352.272 33.3224 352.386C33.9843 352.614 34.543 353.068 35.1005 353.461C35.6538 353.866 36.2335 354.21 36.868 354.398C37.5013 354.587 38.175 354.612 38.8493 354.562C38.8493 354.562 36.5843 354.243 35.3621 352.032C34.2053 349.939 32.0881 350.717 31.3466 352.299C31.1796 352.21 31.0205 352.104 30.8715 351.982C31.0575 351.306 31.1951 350.474 31.2146 349.448L31.2138 349.448C31.2192 349.288 31.1568 349.151 31.0464 349.112C30.9011 349.06 30.7303 349.196 30.6641 349.416C30.6512 349.459 30.6473 349.501 30.6437 349.543L30.6404 349.543C30.6402 349.554 30.6391 349.563 30.6389 349.573L30.6385 349.581C30.6055 351.014 30.2714 352.032 29.8973 352.724C29.7706 352.67 29.6427 352.62 29.5136 352.573C25.7568 351.226 21.7598 353.301 20.5855 357.208C19.4112 361.114 21.5042 365.373 25.2611 366.721C29.0175 368.068 33.015 365.993 34.1892 362.086C34.7781 360.127 34.5451 358.08 33.693 356.355C36.0371 356.643 38.8493 354.562 38.8493 354.562ZM33.5322 361.851C32.4825 365.343 28.8721 367.196 25.4836 365.98C22.0954 364.765 20.1928 360.936 21.2425 357.443C21.3771 356.995 21.5544 356.575 21.7674 356.184L21.8542 356.386L22.1283 356.223L21.996 355.915L21.8831 355.981C23.3196 353.559 26.1835 352.374 28.9604 353.205C28.8757 353.434 28.819 353.672 28.819 353.672C28.819 353.672 27.693 353.058 27.5416 353.396C27.3933 353.727 28.4894 354.349 28.4894 354.349C28.4894 354.349 27.5729 355.469 27.8079 355.749C28.0547 356.044 29.1194 354.983 29.1194 354.983C29.1194 354.983 29.9073 356.334 30.2197 356.089C30.5113 355.861 29.7807 354.596 29.7807 354.596C29.7807 354.596 30.7023 354.354 30.6746 354.074C30.6579 353.902 30.3449 353.845 30.0545 353.828C30.0827 353.787 30.1129 353.736 30.1423 353.69C30.5452 353.903 30.9217 354.155 31.2676 354.44C31.3719 354.711 31.5106 354.963 31.6797 355.188C31.9543 355.561 32.301 355.857 32.6944 356.057C33.7622 357.726 34.1355 359.844 33.5322 361.851ZM30.501 353.014C30.5941 352.806 30.6861 352.582 30.7709 352.321C30.898 352.407 31.0519 352.497 31.2335 352.578C31.1472 352.832 31.0983 353.098 31.0886 353.368C30.8975 353.24 30.7015 353.122 30.501 353.014Z" fill="#F29F05" fill-opacity="0.5"/>
<path d="M25.5931 355.837L25.7257 356.145L26.0002 355.983L25.8674 355.674L25.5931 355.837ZM24.4594 355.28L24.3269 354.971L24.0523 355.134L24.1852 355.442L24.4594 355.28ZM22.7796 354.677L22.9121 354.986L23.1864 354.823L23.0538 354.514L22.7796 354.677ZM26.1722 357.14L26.3048 357.449L26.5793 357.286L26.4465 356.978L26.1722 357.14ZM24.9323 358.035L25.0648 358.344L25.3394 358.181L25.2065 357.873L24.9323 358.035ZM23.5543 357.541L23.6869 357.85L23.9612 357.687L23.8286 357.378L23.5543 357.541ZM21.9402 357.106L22.0727 357.415L22.347 357.252L22.2145 356.944L21.9402 357.106ZM24.5894 356.636L24.7223 356.945L24.9965 356.782L24.864 356.474L24.5894 356.636ZM23.2115 356.142L23.3441 356.451L23.6183 356.288L23.4859 355.979L23.2115 356.142ZM27.0474 355.199L26.9147 354.89L26.6403 355.053L26.7729 355.362L27.0474 355.199ZM25.5274 354.654L25.3951 354.345L25.1206 354.508L25.2534 354.817L25.5274 354.654ZM24.1148 353.886L23.9823 353.578L23.7077 353.74L23.8406 354.049L24.1148 353.886ZM26.3352 353.936L26.4678 354.245L26.7423 354.082L26.6095 353.774L26.3352 353.936ZM26.0244 352.839L26.1573 353.148L26.4315 352.985L26.299 352.677L26.0244 352.839ZM24.8739 353.151L25.0065 353.46L25.2807 353.297L25.1482 352.988L24.8739 353.151ZM23.8876 358.971L24.0206 359.279L24.2947 359.117L24.1623 358.808L23.8876 358.971ZM22.433 358.449L22.5657 358.757L22.8398 358.595L22.7073 358.286L22.433 358.449Z" fill="#F29F05" fill-opacity="0.5"/>
<g opacity="0.5">
<path opacity="0.5" d="M64.6427 475.395C62.9024 474.454 61.2984 473.302 59.7878 472.028C58.3096 470.707 56.9929 469.214 55.8598 467.574C53.5652 464.278 52.353 460.266 51.5649 456.284C50.783 452.291 50.2568 448.278 48.7343 444.731C47.2347 441.17 44.511 438.325 41.2605 436.13C43.0866 436.945 44.7662 438.02 46.2535 439.325C47.7203 440.681 48.9428 442.283 49.8773 444.076C51.7719 447.688 52.355 451.855 53.1662 455.761C53.9132 459.701 55.0118 463.482 56.9497 466.81C58.8754 470.142 61.6098 472.93 64.6427 475.395C64.6427 475.395 56.3588 465.019 59.8377 450.667C63.1293 437.084 51.1895 432.006 41.9057 435.845C41.549 434.8 41.2932 433.713 41.1416 432.596C44.5589 430.435 48.3837 427.408 52.4636 423.083L52.4599 423.08C53.1042 422.417 53.3765 421.58 53.0665 420.971C52.6584 420.17 51.409 420.075 50.2732 420.756C50.0515 420.889 49.8704 421.055 49.693 421.22L49.6773 421.208C49.6357 421.252 49.5943 421.289 49.5528 421.332L49.5197 421.365C43.7959 427.384 38.4246 430.423 34.1533 431.906C33.8311 431.17 33.4893 430.445 33.1281 429.732C22.5792 409.007 -2.32045 402.018 -22.4859 414.114C-42.6514 426.211 -50.4489 452.814 -39.8984 473.537C-29.3495 494.258 -4.44838 501.25 15.7171 489.154C25.8289 483.088 32.8285 473.375 35.9657 462.585C44.7058 473.14 64.6427 475.395 64.6427 475.395ZM13.872 485.53C-4.15498 496.343 -26.5612 489.936 -36.0769 471.245C-45.5919 452.555 -38.6678 428.552 -20.6408 417.738C-18.3295 416.352 -15.9457 415.253 -13.5268 414.423L-13.9491 415.636L-12.1602 416.025L-11.514 414.175L-12.2493 414.012C3.23362 409.329 19.8994 415.631 28.3396 430.242C27.0891 430.89 25.9222 431.687 25.9222 431.687C25.9222 431.687 23.5824 424.57 21.6279 425.419C19.7116 426.253 21.8972 433.282 21.8972 433.282C21.8972 433.282 13.6782 434.442 13.576 436.578C13.4663 438.824 22.0785 438.506 22.0785 438.506C22.0785 438.506 20.1266 447.438 22.3949 447.629C24.5118 447.808 26.3676 439.476 26.3676 439.476C26.3676 439.476 31.1856 442.104 32.1626 440.789C32.7626 439.984 31.6689 438.495 30.5108 437.27C30.7907 437.205 31.1172 437.105 31.4208 437.023C32.2851 439.54 32.8872 442.118 33.2296 444.719C32.6118 446.297 32.213 447.931 32.0456 449.57C31.7506 452.259 32.0524 454.912 32.9287 457.333C30.9138 468.744 24.2314 479.315 13.872 485.53ZM35.5646 435.548C36.7633 435.03 38.0268 434.431 39.4004 433.648C39.5999 434.522 39.8954 435.522 40.3415 436.594C38.9915 437.338 37.7466 438.287 36.6561 439.405C36.3496 438.098 35.9854 436.811 35.5646 435.548Z" fill="#F29F05"/>
<path d="M3.91873 428.146L3.27321 429.998L5.06198 430.392L5.70676 428.538L3.91873 428.146ZM1.32049 421.247L1.96754 419.394L0.177245 419.002L-0.466013 420.854L1.32049 421.247ZM-3.39561 411.98L-4.04114 413.832L-2.25311 414.224L-1.60759 412.372L-3.39561 411.98ZM1.27303 436.044L0.629037 437.895L2.41627 438.29L3.06106 436.437L1.27303 436.044ZM-7.42971 434.954L-8.07523 436.806L-6.28646 437.199L-5.64167 435.346L-7.42971 434.954ZM-11.2993 427.353L-11.9448 429.205L-10.1568 429.597L-9.51128 427.745L-11.2993 427.353ZM-16.3935 419.067L-17.0406 420.92L-15.251 421.311L-14.6055 419.459L-16.3935 419.067ZM-3.41856 427.585L-4.06335 429.439L-2.27532 429.831L-1.6298 427.979L-3.41856 427.585ZM-7.28817 419.985L-7.93369 421.837L-6.14566 422.229L-5.49861 420.376L-7.28817 419.985ZM12.5203 431.194L13.1666 429.34L11.377 428.948L10.7315 430.8L12.5203 431.194ZM8.2529 422.808L8.89916 420.957L7.11039 420.564L6.46561 422.417L8.2529 422.808ZM5.30258 413.897L5.94811 412.045L4.15934 411.651L3.51455 413.505L5.30258 413.897ZM14.4469 422.941L13.8014 424.793L15.5902 425.187L16.235 423.334L14.4469 422.941ZM17.4152 416.998L16.7704 418.851L18.5584 419.243L19.204 417.391L17.4152 416.998ZM11.3609 413.76L10.7154 415.612L12.5034 416.004L13.1489 414.152L11.3609 413.76ZM-15.4702 434.815L-16.1119 436.666L-14.3269 437.06L-13.6799 435.208L-15.4702 434.815ZM-19.5553 426.791L-20.1977 428.641L-18.4128 429.035L-17.7657 427.182L-19.5553 426.791Z" fill="#F29F05"/>
</g>
<path opacity="0.5" d="M145.953 462.133C146.046 463.381 145.988 464.617 145.837 465.837C145.651 467.054 145.325 468.232 144.865 469.353C143.945 471.615 142.307 473.49 140.544 475.122C138.774 476.753 136.911 478.248 135.61 480.157C134.295 482.057 133.744 484.422 133.697 486.884C133.511 485.626 133.506 484.372 133.681 483.155C133.887 481.934 134.3 480.775 134.903 479.719C136.114 477.585 138.038 476.011 139.754 474.39C141.508 472.794 143.066 471.05 144.12 468.977C145.179 466.909 145.697 464.555 145.953 462.133C145.953 462.133 143.404 469.842 134.981 472.215C127.009 474.46 128.348 482.61 133.341 486.611C132.927 487.123 132.459 487.591 131.943 488.01C129.725 486.761 126.935 485.546 123.402 484.578L123.402 484.581C122.854 484.422 122.34 484.522 122.133 484.877C121.86 485.344 122.221 486.066 122.94 486.492C123.08 486.575 123.223 486.626 123.365 486.675L123.364 486.687C123.4 486.697 123.432 486.709 123.468 486.719L123.496 486.727C128.427 488.1 131.731 490.17 133.884 492.095C133.616 492.495 133.361 492.902 133.117 493.316C126.06 505.386 130.68 521.301 143.431 528.866C156.183 536.431 172.24 532.782 179.296 520.713C186.351 508.645 181.733 492.727 168.981 485.162C162.586 481.369 155.362 480.396 148.858 481.89C151.348 473.874 145.953 462.133 145.953 462.133ZM167.747 487.273C179.146 494.036 183.243 508.393 176.88 519.279C170.516 530.164 156.065 533.518 144.665 526.755C143.204 525.888 141.864 524.895 140.65 523.801L141.404 523.672L141.015 522.562L139.864 522.758L140.022 523.215C132.568 516.026 130.3 504.887 134.947 495.821C135.685 496.321 136.472 496.73 136.472 496.73C136.472 496.73 133.629 500.162 134.7 500.992C135.752 501.806 138.602 498.485 138.602 498.485C138.602 498.485 141.886 502.699 143.003 502.115C144.179 501.503 141.193 496.818 141.193 496.818C141.193 496.818 146.366 495.223 145.719 493.907C145.116 492.678 140.279 494.147 140.279 494.147C140.279 494.147 140.032 490.685 139.045 490.537C138.44 490.445 138.042 491.499 137.801 492.509C137.676 492.373 137.518 492.222 137.377 492.078C138.371 490.843 139.482 489.736 140.689 488.766C141.692 488.636 142.652 488.367 143.539 487.969C145 487.326 146.247 486.363 147.189 485.151C153.64 482.848 161.196 483.387 167.747 487.273ZM135.27 490.22C134.613 489.71 133.895 489.188 133.048 488.661C133.426 488.288 133.836 487.824 134.234 487.255C135.054 487.781 135.944 488.188 136.869 488.458C136.306 489.02 135.772 489.608 135.27 490.22Z" fill="#F29F05" fill-opacity="0.5"/>
<path d="M141.892 510.004L143.043 509.807L142.657 508.696L141.505 508.894L141.892 510.004ZM139.243 513.514L138.091 513.711L138.479 514.822L139.63 514.624L139.243 513.514ZM136.087 518.911L137.239 518.714L136.851 517.604L135.7 517.801L136.087 518.911ZM146.768 509.104L147.918 508.906L147.532 507.796L146.38 507.994L146.768 509.104ZM149.068 514.261L150.22 514.064L149.833 512.953L148.681 513.151L149.068 514.261ZM146.48 518.688L147.632 518.491L147.244 517.381L146.093 517.578L146.48 518.688ZM143.947 524L145.099 523.803L144.711 522.693L143.559 522.89L143.947 524ZM144.014 514.244L145.166 514.046L144.778 512.936L143.627 513.133L144.014 514.244ZM141.426 518.671L142.577 518.474L142.19 517.364L141.038 517.56L141.426 518.671ZM140.618 504.316L139.465 504.513L139.853 505.624L141.005 505.427L140.618 504.316ZM137.762 509.199L136.611 509.395L136.998 510.506L138.15 510.308L137.762 509.199ZM134.207 513.508L133.056 513.705L133.443 514.816L134.595 514.618L134.207 513.508ZM135.798 505.721L136.95 505.524L136.563 504.413L135.411 504.611L135.798 505.721ZM131.808 505.856L132.96 505.658L132.573 504.548L131.421 504.745L131.808 505.856ZM132.151 510.187L133.302 509.99L132.915 508.88L131.764 509.077L132.151 510.187ZM151.635 518.765L152.785 518.566L152.399 517.457L151.247 517.654L151.635 518.765ZM148.903 523.439L150.052 523.24L149.667 522.132L148.514 522.328L148.903 523.439Z" fill="#F29F05" fill-opacity="0.5"/>
</g>
<defs>
<clipPath id="clip0_2001_2">
<rect width="153" height="607" fill="white"/>
</clipPath>
</defs>
</svg>
