<svg width="225" height="307" viewBox="0 0 225 307" fill="none" xmlns="http://www.w3.org/2000/svg">
<path fill-rule="evenodd" clip-rule="evenodd" d="M195.853 33.1483C182.434 67.2993 153.838 86.2186 97.6568 98.107C50.1844 108.155 24.6275 126.186 8.71706 160.844C1.73207 176.065 0.181673 184.625 0.00794939 208.975C-0.106773 225.266 1.0339 245.218 2.54496 253.312L5.28848 268.032L20.1828 235.536C44.9269 181.548 83.7523 144.883 123.106 138.334L137.466 135.946L117.235 147.612C89.223 163.769 60.9094 198.757 44.3205 237.717C37.1782 254.489 30.3669 272.701 29.1869 278.184C27.112 287.837 27.8102 288.418 51.1153 296.515C84.798 308.218 127.436 308.111 151.278 296.271C194.529 274.786 224.186 209.945 224.226 136.779C224.242 112.009 215.362 57.4102 207.073 31.2971L202.386 16.5245L195.853 33.1483Z" fill="#58B741"/>
<path d="M29.7468 287.528C104.131 287.528 204.962 197.907 219.839 106.419C233.063 175.502 201.656 367.814 29.7468 287.528Z" fill="#49A010"/>
<ellipse cx="66.1048" cy="74.6859" rx="6.6119" ry="7.46841" fill="#3A7F0D"/>
<ellipse cx="148.768" cy="44.8073" rx="13.2238" ry="14.9368" fill="#3A7F0D"/>
<ellipse cx="74.3697" cy="16.8039" rx="14.8768" ry="16.8039" fill="#58B741"/>
<ellipse cx="107.432" cy="61.6102" rx="4.95893" ry="5.60131" fill="#3A7F0D"/>
</svg>
