<svg width="6" height="7" viewBox="0 0 6 7" fill="none" xmlns="http://www.w3.org/2000/svg">
<path d="M3 6C3 6 5 4.5 5 2.875C5 1.8395 4.10453 1 3 1C1.89547 1 1 1.8395 1 2.875C1 4.5 3 6 3 6Z" stroke="white" stroke-width="0.5" stroke-linejoin="round"/>
<path d="M3 4C3.15759 4 3.31363 3.97413 3.45922 3.92388C3.60481 3.87362 3.7371 3.79997 3.84853 3.70711C3.95996 3.61425 4.04835 3.50401 4.10866 3.38268C4.16896 3.26136 4.2 3.13132 4.2 3C4.2 2.86868 4.16896 2.73864 4.10866 2.61732C4.04835 2.49599 3.95996 2.38575 3.84853 2.29289C3.7371 2.20003 3.60481 2.12638 3.45922 2.07612C3.31363 2.02587 3.15759 2 3 2C2.68174 2 2.37652 2.10536 2.15147 2.29289C1.92643 2.48043 1.8 2.73478 1.8 3C1.8 3.26522 1.92643 3.51957 2.15147 3.70711C2.37652 3.89464 2.68174 4 3 4Z" stroke="white" stroke-width="0.5" stroke-linejoin="round"/>
</svg>
