<svg width="2300" height="2310" viewBox="0 0 2300 2310" fill="none" xmlns="http://www.w3.org/2000/svg">
<path d="M1884.72 707.901H2264.6L2268.06 633.385H1888.17L1884.72 707.901Z" fill="url(#paint0_linear_125_11)"/>
<path d="M2300 1115.74V2C2300 0.895431 2299.1 0 2298 0H2238.11C2237.01 0 2236.11 0.895434 2236.11 2V1115.74C2236.11 1116.84 2237.01 1117.74 2238.11 1117.74H2298C2299.1 1117.74 2300 1116.84 2300 1115.74Z" fill="url(#paint1_linear_125_11)"/>
<path d="M183.25 1977.49C183.25 2219.72 303.969 2240.49 400.185 2240.49L563.449 2256.66C568.688 2289.88 568.413 2298.81 561.16 2308.27H497.017H480.981H462.396H441.324H420.378H400.185H328.316H256.481C14.6591 2308.27 31.3578 2312.4 32.6396 2038.83V1236.75C32.6396 1185.91 68.2945 1144.7 112.277 1144.7C156.681 1144.7 192.508 1186.68 191.907 1237.99L183.25 1977.49Z" fill="url(#paint2_linear_125_11)"/>
<path d="M1362.26 1946.83C1298.23 2084.24 1384.34 2250.88 1519.37 2250.88H1672.8C1686.62 2250.88 1697.82 2263.83 1697.82 2279.8C1697.82 2295.77 1686.62 2308.71 1672.8 2308.71H989.323L1365.61 1521.32C1432.29 1383.08 1345.82 1212.92 1208.88 1212.92H1054.45C1040.64 1212.92 1029.44 1199.98 1029.44 1184.01C1029.44 1168.04 1040.64 1155.09 1054.45 1155.09H1731.17L1362.26 1946.83Z" fill="url(#paint3_linear_125_11)"/>
<path d="M1757.47 1095.79L1731.17 1155.09C1642.93 1155.09 1480.58 1244.71 1522.7 1155.09L2051.25 57.8292C2068.15 22.1704 2100.52 0 2135.7 0H2268.06L2209.04 126.649L1757.47 1095.79Z" fill="url(#paint4_linear_125_11)"/>
<path d="M183.25 1977.49C183.25 2219.72 303.969 2240.49 400.185 2240.49L527.659 2238.19C557.039 2237.66 560.546 2238.26 563.449 2256.66C568.722 2290.09 568.413 2298.81 561.16 2308.27H497.017H480.981H462.396H441.324H420.378H400.185H328.316H256.481C14.6591 2308.27 31.3578 2312.4 32.6396 2038.83V1236.75C32.6396 1185.91 68.2945 1144.7 112.277 1144.7C156.681 1144.7 192.508 1186.68 191.907 1237.99L183.25 1977.49Z" fill="url(#paint5_linear_125_11)"/>
<path d="M560.675 1975.48C560.675 2217.72 681.394 2238.48 777.61 2238.48L979.661 2242.36C979.661 2270.4 970.784 2308.71 946.572 2308.71H937.457H929.04H920.623H860.729H840.96H776.172H634.728C392.907 2308.71 410.064 2344.79 410.064 2033.78V1234.74C410.064 1183.91 445.719 1142.7 489.702 1142.7C534.106 1142.7 569.933 1184.67 569.332 1235.99L560.675 1975.48Z" fill="url(#paint6_linear_125_11)"/>
<path d="M752.291 49.5775C762.417 19.9272 790.279 0 821.611 0L497.915 993.912C471.622 1074.65 357.534 1075 330.738 994.433L37.5289 112.839C19.0608 57.3103 60.397 0 118.916 0C156.176 0 189.175 24.0565 200.574 59.5304L385.151 633.927C411.071 714.59 524.827 715.624 552.209 635.446L752.291 49.5775Z" fill="url(#paint7_linear_125_11)"/>
<path d="M821.611 0H893.334C941.935 0 981.334 39.3989 981.334 88V2230.13C981.334 2274.24 945.579 2309.99 901.473 2309.99C857.367 2309.99 821.612 2274.24 821.612 2230.13L821.611 0Z" fill="url(#paint8_linear_125_11)"/>
<path d="M1785.58 0C1801.63 0 1814.64 13.0111 1814.64 29.0612C1814.64 45.1113 1801.63 58.1224 1785.58 58.1224H1602.37C1553.77 58.1224 1514.37 97.5213 1514.37 146.122V1038.52C1514.37 1082.27 1478.9 1117.74 1435.14 1117.74C1391.39 1117.74 1355.92 1082.27 1355.92 1038.52V146.122C1355.92 97.5214 1316.52 58.1224 1267.92 58.1224H1084.71C1068.66 58.1224 1055.64 45.1113 1055.64 29.0612C1055.64 13.0111 1068.66 0 1084.71 0H1785.58Z" fill="url(#paint9_linear_125_11)"/>
<path fill-rule="evenodd" clip-rule="evenodd" d="M1908.15 1277.01C1900.6 1282.6 1893.41 1303.49 1892.18 1323.41V1363.09H2041.71H2193.49V1324.05C2193.49 1296.77 2187.46 1278.86 2176.64 1274.02C2151.46 1262.75 1924 1265.29 1908.15 1277.01ZM1842.08 1401.8C1792.04 1418.04 1798.31 1444.74 1798.14 1859.17C1797.99 2231.56 1798.14 2286.24 1798.14 2310H2044.37H2300C2300 2279.72 2300 2230.2 2300 1861.68C2300 1602.19 2296.64 1470.24 2287.88 1447.82C2281.21 1430.75 2261.33 1410.92 2243.69 1403.75C2208.55 1389.47 1884.93 1387.89 1842.08 1401.8ZM2086.98 1676.43V1775.82H2157.35C2214.97 1775.82 2226.63 1779.13 2221.69 1794.13C2208.27 1834.94 2027.45 2123.06 2015.08 2123.35C2005.59 2123.57 2001.77 2096.91 2001.77 2030.49L2001.77 1937.31L1932.53 1937.31C1890.72 1937.31 1863.3 1932.08 1863.3 1924.1C1863.3 1916.83 1897.57 1853.94 1939.45 1784.34C2049.9 1600.78 2065.63 1577.05 2076.87 1577.05C2082.43 1577.05 2086.98 1621.77 2086.98 1676.43ZM1978.98 1775.82L1905.91 1900.05H1968.33H2028.39V1974.58V2061.54L2111.28 1927.5L2183.52 1806.87H2118.93H2056.06V1728.34V1651.59L1978.98 1775.82Z" fill="#009750"/>
<path d="M1892.18 1323.41C1893.41 1303.49 1900.6 1282.6 1908.15 1277.01C1924 1265.29 2151.46 1262.75 2176.64 1274.02C2187.46 1278.86 2193.49 1296.77 2193.49 1324.05V1363.09H2041.71H1892.18V1323.41Z" fill="#009750"/>
<path d="M1892.17 1323.41C1893.41 1303.49 1900.6 1282.6 1908.15 1277.01C1924 1265.29 2151.45 1262.75 2176.63 1274.02C2187.45 1278.86 2193.48 1296.77 2193.48 1324.05V1363.09H2041.7H1892.17V1323.41Z" fill="#009750"/>
<path d="M1905.9 1900.04L1978.97 1775.82L2056.05 1651.59V1728.34V1806.87H2118.92H2183.51L2111.27 1927.5L2028.39 2061.54V1974.58V1900.04H1968.32H1905.9Z" fill="url(#paint10_linear_125_11)"/>
<defs>
<linearGradient id="paint0_linear_125_11" x1="2268.06" y1="670.643" x2="1884.72" y2="670.643" gradientUnits="userSpaceOnUse">
<stop stop-color="#039651"/>
<stop offset="1" stop-color="#001EB9"/>
</linearGradient>
<linearGradient id="paint1_linear_125_11" x1="2268.06" y1="0" x2="2268.06" y2="1117.74" gradientUnits="userSpaceOnUse">
<stop stop-color="#039651"/>
<stop offset="1" stop-color="#001EB9"/>
</linearGradient>
<linearGradient id="paint2_linear_125_11" x1="1150.04" y1="0" x2="1150.04" y2="2313.59" gradientUnits="userSpaceOnUse">
<stop offset="0.575" stop-color="#039651"/>
<stop offset="1" stop-color="#001EB9"/>
</linearGradient>
<linearGradient id="paint3_linear_125_11" x1="1150.04" y1="0" x2="1150.04" y2="2313.59" gradientUnits="userSpaceOnUse">
<stop offset="0.575" stop-color="#039651"/>
<stop offset="1" stop-color="#001EB9"/>
</linearGradient>
<linearGradient id="paint4_linear_125_11" x1="1150.04" y1="0" x2="1150.04" y2="2313.59" gradientUnits="userSpaceOnUse">
<stop offset="0.575" stop-color="#039651"/>
<stop offset="1" stop-color="#001EB9"/>
</linearGradient>
<linearGradient id="paint5_linear_125_11" x1="1150.04" y1="0" x2="1150.04" y2="2313.59" gradientUnits="userSpaceOnUse">
<stop offset="0.575" stop-color="#039651"/>
<stop offset="1" stop-color="#001EB9"/>
</linearGradient>
<linearGradient id="paint6_linear_125_11" x1="1150.04" y1="0" x2="1150.04" y2="2313.59" gradientUnits="userSpaceOnUse">
<stop offset="0.575" stop-color="#039651"/>
<stop offset="1" stop-color="#001EB9"/>
</linearGradient>
<linearGradient id="paint7_linear_125_11" x1="907.322" y1="0" x2="907.322" y2="2309.99" gradientUnits="userSpaceOnUse">
<stop stop-color="#039651"/>
<stop offset="1" stop-color="#001EB9"/>
</linearGradient>
<linearGradient id="paint8_linear_125_11" x1="907.322" y1="0" x2="907.322" y2="2309.99" gradientUnits="userSpaceOnUse">
<stop stop-color="#039651"/>
<stop offset="1" stop-color="#001EB9"/>
</linearGradient>
<linearGradient id="paint9_linear_125_11" x1="907.322" y1="0" x2="907.322" y2="2309.99" gradientUnits="userSpaceOnUse">
<stop stop-color="#039651"/>
<stop offset="1" stop-color="#001EB9"/>
</linearGradient>
<linearGradient id="paint10_linear_125_11" x1="2044.7" y1="1651.59" x2="2044.7" y2="2061.54" gradientUnits="userSpaceOnUse">
<stop offset="0.9999" stop-color="#039651"/>
<stop offset="1" stop-color="#001EB9"/>
</linearGradient>
</defs>
</svg>
